<svg xmlns="http://www.w3.org/2000/svg" width="16" height="16" viewBox="0 0 360 360"><defs><style>.a,.c{fill:none;}.a,.b,.c{stroke:#000;stroke-miterlimit:10;}.a{stroke-width:10px;}.b,.c{stroke-width:5px;}.b{fill-rule:evenodd;}.c{stroke-linecap:round;}</style></defs><path d="M260,90a10,10,0,0,1,10,10V260a10,10,0,0,1-10,10H100a10,10,0,0,1-10-10V100a10,10,0,0,1,10-10H260m0-10H100a20.06,20.06,0,0,0-20,20V260a20.06,20.06,0,0,0,20,20H260a20.06,20.06,0,0,0,20-20V100a20.06,20.06,0,0,0-20-20Z" transform="translate(0 0)"/><line class="a" x1="180" y1="80" x2="180" y2="30"/><circle class="a" cx="180" cy="17.5" r="12.5"/><line class="a" x1="230" y1="80" x2="230" y2="50"/><circle class="a" cx="230" cy="37.5" r="12.5"/><line class="a" x1="130" y1="80" x2="130" y2="50"/><circle class="a" cx="130" cy="37.5" r="12.5"/><line class="a" x1="280" y1="180" x2="330" y2="180"/><circle class="a" cx="342.5" cy="180" r="12.5"/><line class="a" x1="280" y1="230" x2="310" y2="230"/><circle class="a" cx="322.5" cy="230" r="12.5"/><line class="a" x1="280" y1="130" x2="310" y2="130"/><circle class="a" cx="322.5" cy="130" r="12.5"/><line class="a" x1="80" y1="180" x2="30" y2="180"/><circle class="a" cx="17.5" cy="180" r="12.5"/><line class="a" x1="80" y1="130" x2="50" y2="130"/><circle class="a" cx="37.5" cy="130" r="12.5"/><line class="a" x1="80" y1="230" x2="50" y2="230"/><circle class="a" cx="37.5" cy="230" r="12.5"/><line class="a" x1="180" y1="280" x2="180" y2="330"/><circle class="a" cx="180" cy="342.5" r="12.5"/><line class="a" x1="130" y1="280" x2="130" y2="310"/><circle class="a" cx="130" cy="322.5" r="12.5"/><line class="a" x1="230" y1="280" x2="230" y2="310"/><circle class="a" cx="230" cy="322.5" r="12.5"/><path class="b" d="M247.89,112.8,212.44,119h0v40.58c-.73-1-2.52-1.31-4.35-1.31a9.7,9.7,0,0,0-6.61,3.08A6.74,6.74,0,0,0,198,166.8a4.11,4.11,0,0,0,1.57,3.3,6.45,6.45,0,0,0,3.78,1.48,11.92,11.92,0,0,0,6.92-2.74,7.94,7.94,0,0,0,3.46-6.08V123.7l32.77-5.88v35.47c-1-.89-2.52-1.15-4.35-1.15a11.24,11.24,0,0,0-6.61,2.67c-2,1.57-3.46,3.72-3.46,5.87a4.13,4.13,0,0,0,1.57,3.31,6,6,0,0,0,3.78,1.25,13,13,0,0,0,7.33-2.51c1.63-1.58,3.24-3.73,3.24-6.08Z" transform="translate(0 0)"/><line class="c" x1="105" y1="117.5" x2="180" y2="117.5"/><line class="c" x1="105" y1="142.5" x2="180" y2="142.5"/><line class="c" x1="105" y1="167.5" x2="180" y2="167.5"/><line class="c" x1="105" y1="192.5" x2="255" y2="192.5"/><line class="c" x1="105" y1="217.5" x2="255" y2="217.5"/><line class="c" x1="105" y1="242.5" x2="255" y2="242.5"/></svg>